<?xml version="1.0" encoding="UTF-8"?>
<svg version="1.1" xmlns="http://www.w3.org/2000/svg" width="153" height="65">
<path d="M0 0 C1.98 0 3.96 0 6 0 C6.33 0.66 6.66 1.32 7 2 C7.66 1.34 8.32 0.68 9 0 C11.625 -0.125 11.625 -0.125 14 0 C13.67 0.7425 13.34 1.485 13 2.25 C11.77217129 5.13883312 11.77217129 5.13883312 12 9 C12.66 10.32 13.32 11.64 14 13 C14.495 6.565 14.495 6.565 15 0 C16.98 0 18.96 0 21 0 C21 1.98 21 3.96 21 6 C21.99 6 22.98 6 24 6 C24 4.02 24 2.04 24 0 C25.65 0 27.3 0 29 0 C29 5.28 29 10.56 29 16 C27.35 16 25.7 16 24 16 C23.34 14.02 22.68 12.04 22 10 C21.67 11.98 21.34 13.96 21 16 C19.04233719 16.08082094 17.08373272 16.13910778 15.125 16.1875 C13.48917969 16.23970703 13.48917969 16.23970703 11.8203125 16.29296875 C10.88960937 16.19628906 9.95890625 16.09960938 9 16 C8.34 15.01 7.68 14.02 7 13 C6.67 13.99 6.34 14.98 6 16 C6.66 16 7.32 16 8 16 C7.67 17.32 7.34 18.64 7 20 C7.99 20 8.98 20 10 20 C10 21.32 10 22.64 10 24 C8.68 24 7.36 24 6 24 C6 25.65 6 27.3 6 29 C6.66 29.33 7.32 29.66 8 30 C8 31.32 8 32.64 8 34 C8.99 33.505 8.99 33.505 10 33 C9.67 32.01 9.34 31.02 9 30 C9.5234375 27.7734375 9.5234375 27.7734375 10.375 25.375 C10.78878906 24.18003906 10.78878906 24.18003906 11.2109375 22.9609375 C12 21 12 21 13 20 C14.97793609 19.92717467 16.95833701 19.9163199 18.9375 19.9375 C20.01902344 19.94652344 21.10054687 19.95554687 22.21484375 19.96484375 C23.59349609 19.98224609 23.59349609 19.98224609 25 20 C25.66 20 26.32 20 27 20 C30.66666667 20 34.33333333 20 38 20 C38 21.32 38 22.64 38 24 C35.03 24.495 35.03 24.495 32 25 C31.34 27.64 30.68 30.28 30 33 C32.31 33.33 34.62 33.66 37 34 C37.06058594 33.40832031 37.12117188 32.81664062 37.18359375 32.20703125 C37.26738281 31.41683594 37.35117188 30.62664063 37.4375 29.8125 C37.51871094 29.03519531 37.59992188 28.25789063 37.68359375 27.45703125 C38.00772912 24.93998004 38.47532505 22.4822857 39 20 C41.29109597 19.91924335 43.58299267 19.86092269 45.875 19.8125 C47.78925781 19.76029297 47.78925781 19.76029297 49.7421875 19.70703125 C50.81726563 19.80371094 51.89234375 19.90039062 53 20 C53.99 21.485 53.99 21.485 55 23 C55.99 21.515 55.99 21.515 57 20 C59.78515625 19.671875 59.78515625 19.671875 63.0625 19.75 C64.14660156 19.76546875 65.23070312 19.7809375 66.34765625 19.796875 C69 20 69 20 70 21 C69.60537976 25.73544283 69.03464238 29.65942958 67 34 C67.99 33.67 68.98 33.34 70 33 C70.06058594 32.28714844 70.12117188 31.57429688 70.18359375 30.83984375 C70.64808101 25.53039712 71.18075251 20.266591 72 15 C71.01 14.34 70.02 13.68 69 13 C68.67 13.99 68.34 14.98 68 16 C66.02 16 64.04 16 62 16 C62.47453871 13.51986371 62.95438985 11.04096744 63.4375 8.5625 C63.63956055 7.50192383 63.63956055 7.50192383 63.84570312 6.41992188 C64.88671875 1.11328125 64.88671875 1.11328125 66 0 C67.51928038 -0.07179964 69.04167482 -0.08392007 70.5625 -0.0625 C71.38878906 -0.05347656 72.21507812 -0.04445313 73.06640625 -0.03515625 C73.70449219 -0.02355469 74.34257812 -0.01195312 75 0 C78.62870159 13.6332574 78.62870159 13.6332574 77 20 C77.99 20 78.98 20 80 20 C80 21.32 80 22.64 80 24 C78.68 24 77.36 24 76 24 C76 25.65 76 27.3 76 29 C76.66 29.33 77.32 29.66 78 30 C78.495 31.485 78.495 31.485 79 33 C79.66 33 80.32 33 81 33 C80.67 34.32 80.34 35.64 80 37 C75.20822947 38.23417156 70.53019058 38.13359366 65.61987305 38.11352539 C64.68280014 38.11367142 63.74572723 38.11381744 62.78025818 38.1139679 C59.69072128 38.11327264 56.60124508 38.10549832 53.51171875 38.09765625 C51.36652153 38.0957907 49.22132389 38.09436744 47.0761261 38.09336853 C41.43564676 38.08955417 35.79519326 38.07973309 30.15472412 38.06866455 C24.39677276 38.0584272 18.63881722 38.05386593 12.88085938 38.04882812 C1.58722825 38.03810987 -9.70638373 38.02104641 -21 38 C-20.67 36.68 -20.34 35.36 -20 34 C-19.01 34 -18.02 34 -17 34 C-16.86722656 33.15695313 -16.73445313 32.31390625 -16.59765625 31.4453125 C-16.42105469 30.34960938 -16.24445312 29.25390625 -16.0625 28.125 C-15.88847656 27.03445312 -15.71445312 25.94390625 -15.53515625 24.8203125 C-15 22 -15 22 -14 20 C-9.38 20 -4.76 20 0 20 C0.33 20.66 0.66 21.32 1 22 C1.66 20.02 2.32 18.04 3 16 C2.01 16 1.02 16 0 16 C0 10.72 0 5.44 0 0 Z M70 6 C69.67 6.99 69.34 7.98 69 9 C69.66 9 70.32 9 71 9 C70.67 8.01 70.34 7.02 70 6 Z M0 23 C0 24.65 0 26.3 0 28 C0.33 28 0.66 28 1 28 C1 26.35 1 24.7 1 23 C0.67 23 0.34 23 0 23 Z M-10 24 C-11.31626692 27.61973402 -12 30.09567131 -12 34 C-10.02 34 -8.04 34 -6 34 C-5.67 30.7 -5.34 27.4 -5 24 C-6.65 24 -8.3 24 -10 24 Z M16 24 C20 25 20 25 20 25 Z M44 24 C43.49818809 25.47855295 42.99859924 26.95786058 42.5 28.4375 C42.2215625 29.26121094 41.943125 30.08492187 41.65625 30.93359375 C40.94955282 32.79749696 40.94955282 32.79749696 41 34 C42.98 34 44.96 34 47 34 C47.66 30.7 48.32 27.4 49 24 C47.35 24 45.7 24 44 24 Z M60 24 C60 24.33 60 24.66 60 25 C61.65 25 63.3 25 65 25 C65 24.67 65 24.34 65 24 C63.35 24 61.7 24 60 24 Z M15 25 C16 27 16 27 16 27 Z M25 25 C26 28 26 28 26 28 Z M53 26 C52.67 28.64 52.34 31.28 52 34 C52.99 33.67 53.98 33.34 55 33 C54.67 30.69 54.34 28.38 54 26 C53.67 26 53.34 26 53 26 Z M59 26 C60 29 60 29 60 29 Z M-1 28 C-1.33 29.98 -1.66 31.96 -2 34 C-1.01 33.67 -0.02 33.34 1 33 C0.67 31.35 0.34 29.7 0 28 C-0.33 28 -0.66 28 -1 28 Z M15 29 C15 29.33 15 29.66 15 30 C17.64 30 20.28 30 23 30 C23 31.32 23 32.64 23 34 C23.66 34 24.32 34 25 34 C25 32.35 25 30.7 25 29 C21.7 29 18.4 29 15 29 Z M2 34 C2 34.33 2 34.66 2 35 C3.65 35 5.3 35 7 35 C7 34.67 7 34.34 7 34 C5.35 34 3.7 34 2 34 Z M11 34 C11 34.33 11 34.66 11 35 C14.96 35 18.92 35 23 35 C23 34.67 23 34.34 23 34 C19.04 34 15.08 34 11 34 Z M55 34 C55 34.33 55 34.66 55 35 C58.63 35 62.26 35 66 35 C66 34.67 66 34.34 66 34 C62.37 34 58.74 34 55 34 Z " fill="#03037A" transform="translate(72,11)"/>
<path d="M0 0 C4.88375369 3.07292367 8.15987908 7.70856862 11.3125 12.4375 C11.71339844 11.94765625 12.11429688 11.4578125 12.52734375 10.953125 C14.79367723 9.02897316 15.94507816 9.09096221 18.875 9.1875 C20.05255859 9.21070313 20.05255859 9.21070313 21.25390625 9.234375 C23.3125 9.4375 23.3125 9.4375 25.3125 10.4375 C25.33935412 12.74993792 25.35882841 15.0624627 25.375 17.375 C25.38660156 18.66277344 25.39820312 19.95054688 25.41015625 21.27734375 C25.3125 24.4375 25.3125 24.4375 24.3125 25.4375 C22.50322719 25.56237758 20.68853893 25.61320846 18.875 25.625 C17.39193359 25.64626953 17.39193359 25.64626953 15.87890625 25.66796875 C13.3125 25.4375 13.3125 25.4375 11.3125 23.4375 C9.64700135 26.43539757 8.93728379 29.07928712 8.3125 32.4375 C7.66103151 34.77512223 6.99723395 37.10940457 6.3125 39.4375 C6.8075 38.4475 6.8075 38.4475 7.3125 37.4375 C7.9725 37.4375 8.6325 37.4375 9.3125 37.4375 C9.00857391 40.27414347 8.31916252 41.43019272 6.375 43.5625 C2.80264391 45.74965679 -0.19434179 46.3272082 -4.28515625 47 C-6.81472586 47.38138774 -6.81472586 47.38138774 -9.5625 48.5625 C-19.3656233 51.30737453 -29.11023382 49.27874881 -38 44.75 C-42.64381752 40.75415702 -45.25919138 37.33894551 -46.171875 31.15625 C-46.52601805 22.10592752 -44.99831728 15.20789268 -38.85546875 8.41015625 C-29.02604523 -0.76009488 -12.90296982 -5.89706043 0 0 Z M-32.6875 10.4375 C-37.49275171 16.50729163 -39.17679228 22.25316152 -39.00390625 29.90625 C-38.33451773 35.26135812 -36.07346627 39.08707133 -32.25 42.8125 C-24.9881967 47.417546 -17.51468183 47.26866392 -9.16796875 46.078125 C-6.73731822 45.51520589 -6.73731822 45.51520589 -3.6875 43.4375 C-2.16234003 40.51168291 -1.40255299 37.63999964 -0.6875 34.4375 C-1.26870605 34.65188721 -1.84991211 34.86627441 -2.44873047 35.0871582 C-9.37052172 37.42688985 -15.54784229 37.80523006 -22.8125 37.625 C-23.864375 37.61146484 -24.91625 37.59792969 -26 37.58398438 C-28.56305954 37.54903356 -31.12498913 37.49997682 -33.6875 37.4375 C-33.22158447 36.79264648 -32.75566895 36.14779297 -32.27563477 35.48339844 C-27.68667065 29.10052334 -23.1019667 22.53599657 -19.6875 15.4375 C-20.0175 14.7775 -20.3475 14.1175 -20.6875 13.4375 C-22.0075 14.7575 -23.3275 16.0775 -24.6875 17.4375 C-23.74072042 14.25287776 -23.02308155 12.70052338 -20.375 10.625 C-17.54805017 9.37588263 -15.73850339 9.17598542 -12.6875 9.4375 C-12.0275 10.7575 -11.3675 12.0775 -10.6875 13.4375 C-10.6875 12.7775 -10.6875 12.1175 -10.6875 11.4375 C-4.46069588 10.12029144 -4.46069588 10.12029144 -1.25 11.4375 C0.3125 13.4375 0.3125 13.4375 0.8125 16.75 C0.12208603 21.84180301 -1.99282677 24.62177868 -5.4375 28.3125 C-8.90533357 30.04641679 -11.82613865 29.62137435 -15.6875 29.4375 C-16.6775 29.4375 -17.6675 29.4375 -18.6875 29.4375 C-20.1481285 32.08488916 -20.6875 33.33198334 -20.6875 36.4375 C-14.27268742 36.86515417 -8.80154596 35.29493168 -2.6875 33.4375 C-2.55021484 32.51710938 -2.55021484 32.51710938 -2.41015625 31.578125 C-1.16127932 27.878749 1.95410263 27.14722957 5.3125 25.4375 C5.27125 24.65375 5.23 23.87 5.1875 23.0625 C5.3125 20.4375 5.3125 20.4375 7.3125 18.4375 C7.79544318 14.25199245 7.5794775 11.95167889 5.625 8.1875 C2.10091218 3.99669286 -1.25749051 2.05454653 -6.6875 1.4375 C-16.94692475 0.6159445 -25.12029086 3.385067 -32.6875 10.4375 Z M17.3125 11.4375 C17.3125 15.0675 17.3125 18.6975 17.3125 22.4375 C18.3025 22.9325 18.3025 22.9325 19.3125 23.4375 C19.3125 19.8075 19.3125 16.1775 19.3125 12.4375 C18.6525 12.1075 17.9925 11.7775 17.3125 11.4375 Z M-8.6875 13.4375 C-9.67308449 15.01684639 -10.65072541 16.60115173 -11.625 18.1875 C-12.17027344 19.06921875 -12.71554688 19.9509375 -13.27734375 20.859375 C-14.51465712 23.12149917 -15.22340513 24.92316325 -15.6875 27.4375 C-12.02963545 24.07621906 -9.5090306 21.09252263 -7.6875 16.4375 C-8.0175 15.4475 -8.3475 14.4575 -8.6875 13.4375 Z " fill="#B42F42" transform="translate(45.6875,1.5625)"/>
<path d="M0 0 C0.66 0.66 1.32 1.32 2 2 C2.556875 1.649375 3.11375 1.29875 3.6875 0.9375 C6.6168682 -0.2500817 8.02608955 0.00869652 11 1 C12.8125 2.125 12.8125 2.125 14 4 C14.55434154 8.19715741 14.30297363 10.42771647 12.3125 14.1875 C6.92797183 20.73625048 6.92797183 20.73625048 2.97265625 21.27734375 C0.06440052 21.32467522 -2.36667338 21.31666331 -5 20 C-5.99 22.31 -6.98 24.62 -8 27 C-5.64365495 26.57240071 -3.29042279 26.13324692 -0.9375 25.6875 C-0.28072266 25.56955078 0.37605469 25.45160156 1.05273438 25.33007812 C5.7074553 24.4358214 9.69919063 22.99660461 14 21 C14 21.99 14 22.98 14 24 C12.75264433 24.6509259 11.50198168 25.29551669 10.25 25.9375 C9.55390625 26.29714844 8.8578125 26.65679687 8.140625 27.02734375 C4.60997317 28.63159978 1.45715579 29.12699912 -2.40625 29.1328125 C-3.64568359 29.13474609 -3.64568359 29.13474609 -4.91015625 29.13671875 C-5.76480469 29.13285156 -6.61945312 29.12898438 -7.5 29.125 C-8.35464844 29.12886719 -9.20929687 29.13273437 -10.08984375 29.13671875 C-10.91613281 29.13542969 -11.74242187 29.13414063 -12.59375 29.1328125 C-13.34333984 29.13168457 -14.09292969 29.13055664 -14.86523438 29.12939453 C-17.02346905 28.99857747 -18.92475391 28.59166841 -21 28 C-19.60703384 25.12309847 -18.07120503 22.39498494 -16.3984375 19.671875 C-15.90859375 18.87265625 -15.41875 18.0734375 -14.9140625 17.25 C-14.15222656 16.0125 -14.15222656 16.0125 -13.375 14.75 C-12.6015625 13.48929688 -12.6015625 13.48929688 -11.8125 12.203125 C-10.54312548 10.13451467 -9.2722465 8.06684478 -8 6 C-9.32 6.99 -10.64 7.98 -12 9 C-12.33 8.01 -12.66 7.02 -13 6 C-9.09016285 0.56967062 -6.68308213 -1.88497188 0 0 Z M4 4 C3.01441551 5.57934639 2.03677459 7.16365173 1.0625 8.75 C0.51722656 9.63171875 -0.02804688 10.5134375 -0.58984375 11.421875 C-1.82715712 13.68399917 -2.53590513 15.48566325 -3 18 C0.65786455 14.63871906 3.1784694 11.65502263 5 7 C4.67 6.01 4.34 5.02 4 4 Z " fill="#4140A3" transform="translate(33,11)"/>
<path d="M0 0 C1.98 0 3.96 0 6 0 C6.33 0.66 6.66 1.32 7 2 C7.66 1.34 8.32 0.68 9 0 C11.625 -0.125 11.625 -0.125 14 0 C13.67 0.7425 13.34 1.485 13 2.25 C11.77217129 5.13883312 11.77217129 5.13883312 12 9 C12.66 10.32 13.32 11.64 14 13 C14.33 8.71 14.66 4.42 15 0 C16.98 0 18.96 0 21 0 C21 1.98 21 3.96 21 6 C21.99 6 22.98 6 24 6 C24 4.02 24 2.04 24 0 C25.65 0 27.3 0 29 0 C29 5.28 29 10.56 29 16 C27.35 16 25.7 16 24 16 C23.34 14.02 22.68 12.04 22 10 C21.67 11.98 21.34 13.96 21 16 C19.04233719 16.08082094 17.08373272 16.13910778 15.125 16.1875 C13.48917969 16.23970703 13.48917969 16.23970703 11.8203125 16.29296875 C10.88960937 16.19628906 9.95890625 16.09960938 9 16 C8.34 15.01 7.68 14.02 7 13 C6.67 13.99 6.34 14.98 6 16 C6.66 16 7.32 16 8 16 C7.67 17.32 7.34 18.64 7 20 C7.99 20 8.98 20 10 20 C10 21.32 10 22.64 10 24 C8.68 24 7.36 24 6 24 C6 25.65 6 27.3 6 29 C6.66 29.33 7.32 29.66 8 30 C8 31.32 8 32.64 8 34 C5.66705225 34.04241723 3.33297433 34.04092937 1 34 C0.67 33.67 0.34 33.34 0 33 C0.14658622 27.11399958 1.18048783 21.57983731 3 16 C2.01 16 1.02 16 0 16 C0 10.72 0 5.44 0 0 Z " fill="#4543A4" transform="translate(72,11)"/>
<path d="M0 0 C0.66 0.33 1.32 0.66 2 1 C1.34 4.3 0.68 7.6 0 11 C-5.61 11 -11.22 11 -17 11 C-17 9.35 -17 7.7 -17 6 C-18.32 6 -19.64 6 -21 6 C-21 6.99 -21 7.98 -21 9 C-20.01 9 -19.02 9 -18 9 C-18 9.66 -18 10.32 -18 11 C-23.28 11 -28.56 11 -34 11 C-34 9.35 -34 7.7 -34 6 C-34.66 7.65 -35.32 9.3 -36 11 C-37.32 11 -38.64 11 -40 11 C-40.33 9.35 -40.66 7.7 -41 6 C-41.33 7.65 -41.66 9.3 -42 11 C-42.5775 10.814375 -43.155 10.62875 -43.75 10.4375 C-46.24369772 9.95261433 -47.59211213 10.30093578 -50 11 C-52.62113708 11 -54.50935112 10.68707555 -57 10 C-57.625 8.1875 -57.625 8.1875 -58 6 C-57.34 5.01 -56.68 4.02 -56 3 C-53.52563477 2.65942383 -53.52563477 2.65942383 -50.44140625 2.70703125 C-49.33345703 2.71669922 -48.22550781 2.72636719 -47.08398438 2.73632812 C-45.92189453 2.76146484 -44.75980469 2.78660156 -43.5625 2.8125 C-41.82516602 2.83280273 -41.82516602 2.83280273 -40.05273438 2.85351562 C-37.90298356 2.87974733 -35.75329322 2.91211113 -33.60375977 2.95239258 C-31.7360846 2.98654135 -29.86798733 3 -28 3 C-27.030625 3.185625 -26.06125 3.37125 -25.0625 3.5625 C-22.16790582 3.97601345 -20.72824586 3.77949882 -18 3 C-17.34 3.33 -16.68 3.66 -16 4 C-16 3.01 -16 2.02 -16 1 C-15.34 1 -14.68 1 -14 1 C-13.34 1.66 -12.68 2.32 -12 3 C-9.5417707 3.16671852 -9.5417707 3.16671852 -7 3 C-5.33333333 3 -3.66666667 3 -2 3 C-1.34 2.01 -0.68 1.02 0 0 Z M-54 5 C-54.33 5.99 -54.66 6.98 -55 8 C-54.01 8 -53.02 8 -52 8 C-52.33 7.01 -52.66 6.02 -53 5 C-53.33 5 -53.66 5 -54 5 Z M-48 5 C-48.33 5.99 -48.66 6.98 -49 8 C-48.34 8 -47.68 8 -47 8 C-47.33 7.01 -47.66 6.02 -48 5 Z M-38 6 C-37 10 -37 10 -37 10 Z M-14 6 C-14.33 6.99 -14.66 7.98 -15 9 C-14.34 9 -13.68 9 -13 9 C-13.33 8.01 -13.66 7.02 -14 6 Z M-4 6 C-4 6.99 -4 7.98 -4 9 C-3.34 9 -2.68 9 -2 9 C-2 8.01 -2 7.02 -2 6 C-2.66 6 -3.32 6 -4 6 Z M-28 8 C-24 9 -24 9 -24 9 Z M-11 8 C-7 9 -7 9 -7 9 Z " fill="#232425" transform="translate(148,53)"/>
<path d="M0 0 C0.66 0.33 1.32 0.66 2 1 C1.44570313 1.35449219 0.89140625 1.70898438 0.3203125 2.07421875 C-4.51603774 5.62833378 -6.54965765 8.31257741 -7.5 14.3125 C-7.70928525 16.53806993 -7.87776901 18.76795578 -8 21 C-8.11988281 22.37671875 -8.11988281 22.37671875 -8.2421875 23.78125 C-8.54942531 29.63684113 -7.57870276 34.26122845 -4 39 C2.96836433 44.54624916 9.37865699 44.59663273 18 44 C21.19191491 43.2489612 23.95056821 42.24044683 27 41 C27.33 41.99 27.66 42.98 28 44 C17.56341869 48.60195711 8.08866299 49.68858379 -2.81640625 45.90234375 C-8.30476472 43.63434588 -12.12384633 40.67246224 -15.078125 35.53125 C-17.66462099 28.42934576 -17.0707116 20.40371122 -14 13.5625 C-10.57783861 7.62749438 -5.62319058 3.74879372 0 0 Z " fill="#0C0B7A" transform="translate(16,3)"/>
<path d="M0 0 C1.62615234 0.01740234 1.62615234 0.01740234 3.28515625 0.03515625 C4.36667969 0.04417969 5.44820312 0.05320312 6.5625 0.0625 C7.94115234 0.07990234 7.94115234 0.07990234 9.34765625 0.09765625 C10.00765625 0.09765625 10.66765625 0.09765625 11.34765625 0.09765625 C15.01432292 0.09765625 18.68098958 0.09765625 22.34765625 0.09765625 C22.34765625 1.41765625 22.34765625 2.73765625 22.34765625 4.09765625 C20.36765625 4.42765625 18.38765625 4.75765625 16.34765625 5.09765625 C15.35765625 8.06765625 14.36765625 11.03765625 13.34765625 14.09765625 C12.02765625 14.09765625 10.70765625 14.09765625 9.34765625 14.09765625 C9.34765625 12.44765625 9.34765625 10.79765625 9.34765625 9.09765625 C8.35765625 9.59265625 8.35765625 9.59265625 7.34765625 10.09765625 C7.34765625 11.41765625 7.34765625 12.73765625 7.34765625 14.09765625 C3.38765625 14.09765625 -0.57234375 14.09765625 -4.65234375 14.09765625 C-6.65234375 10.09765625 -6.65234375 10.09765625 -6.2265625 7.7734375 C-5.93394531 6.99355469 -5.64132813 6.21367188 -5.33984375 5.41015625 C-5.05496094 4.62253906 -4.77007812 3.83492187 -4.4765625 3.0234375 C-3.23350998 0.11905412 -3.23350998 0.11905412 0 0 Z M0.34765625 4.09765625 C4.34765625 5.09765625 4.34765625 5.09765625 4.34765625 5.09765625 Z M-0.65234375 5.09765625 C0.34765625 7.09765625 0.34765625 7.09765625 0.34765625 7.09765625 Z M9.34765625 5.09765625 C10.34765625 8.09765625 10.34765625 8.09765625 10.34765625 8.09765625 Z " fill="#C4292D" transform="translate(87.65234375,30.90234375)"/>
<path d="M0 0 C4.69471718 2.96063245 8.5559261 7.16777829 10.3125 12.4375 C10.35204234 14.77049825 10.35651732 17.10458189 10.3125 19.4375 C9.3225 19.1075 8.3325 18.7775 7.3125 18.4375 C6.7578125 16.546875 6.7578125 16.546875 6.4375 14.1875 C5.53197236 9.55679364 4.21968997 7.30277265 0.3125 4.4375 C-7.34730156 1.3441186 -14.89041631 1.59999841 -22.55078125 4.4609375 C-28.67301914 7.25903526 -32.23730138 10.73140228 -35.6875 16.4375 C-36.0175 16.4375 -36.3475 16.4375 -36.6875 16.4375 C-37.30821869 13.52012214 -37.52914062 12.24296874 -36.6875 9.4375 C-27.76028508 -1.0030904 -13.17851832 -5.97391978 0 0 Z " fill="#5352A9" transform="translate(45.6875,1.5625)"/>
<path d="M0 0 C1.5675 -0.04125 3.135 -0.0825 4.75 -0.125 C5.63171875 -0.14820313 6.5134375 -0.17140625 7.421875 -0.1953125 C10.1135858 0.00860498 11.69904974 0.63448279 14 2 C14 6.66666667 14 11.33333333 14 16 C12.35 16 10.7 16 9 16 C8.34 14.35 7.68 12.7 7 11 C6.67 12.65 6.34 14.3 6 16 C4.02 16 2.04 16 0 16 C0 10.72 0 5.44 0 0 Z M6 3 C6 4.32 6 5.64 6 7 C6.66 7 7.32 7 8 7 C7.67 5.68 7.34 4.36 7 3 C6.67 3 6.34 3 6 3 Z " fill="#4544A4" transform="translate(119,11)"/>
<path d="M0 0 C0.99 0 1.98 0 3 0 C3 1.32 3 2.64 3 4 C3.69609375 3.83757813 4.3921875 3.67515625 5.109375 3.5078125 C8.21101236 2.96293026 11.10262435 2.86724784 14.25 2.875 C15.83554687 2.87113281 15.83554687 2.87113281 17.453125 2.8671875 C20 3 20 3 21 4 C21.04063832 5.66617115 21.042721 7.33388095 21 9 C21.66 9 22.32 9 23 9 C22.67 10.32 22.34 11.64 22 13 C21.34 13 20.68 13 20 13 C20 12.34 20 11.68 20 11 C19.21625 11 18.4325 11 17.625 11 C9.41666667 11 1.20833333 11 -7 11 C-7.58984375 9.140625 -7.58984375 9.140625 -8 7 C-6.5625 4.75 -6.5625 4.75 -5 3 C-3.35 3.33 -1.7 3.66 0 4 C0 2.68 0 1.36 0 0 Z M-5 6 C-5 6.99 -5 7.98 -5 9 C-3.68 9 -2.36 9 -1 9 C-1 8.01 -1 7.02 -1 6 C-2.32 6 -3.64 6 -5 6 Z M4 6 C4 6.99 4 7.98 4 9 C4.66 9 5.32 9 6 9 C6 8.01 6 7.02 6 6 C5.34 6 4.68 6 4 6 Z " fill="#202122" transform="translate(38,52)"/>
<path d="M0 0 C1.17755859 0.02320313 1.17755859 0.02320313 2.37890625 0.046875 C4.4375 0.25 4.4375 0.25 6.4375 1.25 C6.46435412 3.56243792 6.48382841 5.8749627 6.5 8.1875 C6.51160156 9.47527344 6.52320312 10.76304688 6.53515625 12.08984375 C6.4375 15.25 6.4375 15.25 5.4375 16.25 C3.62937276 16.40091913 1.81419383 16.47169008 0 16.5 C-0.98871094 16.52578125 -1.97742187 16.5515625 -2.99609375 16.578125 C-3.84300781 16.46984375 -4.68992188 16.3615625 -5.5625 16.25 C-7.70803377 13.03169935 -7.85833868 11.98213493 -7.875 8.25 C-7.89175781 7.38375 -7.90851562 6.5175 -7.92578125 5.625 C-7.5625 3.25 -7.5625 3.25 -6.328125 1.453125 C-4.07108394 -0.08485873 -2.70997056 -0.08929063 0 0 Z M-1.5625 2.25 C-1.5625 5.88 -1.5625 9.51 -1.5625 13.25 C-0.5725 13.745 -0.5725 13.745 0.4375 14.25 C0.4375 10.62 0.4375 6.99 0.4375 3.25 C-0.2225 2.92 -0.8825 2.59 -1.5625 2.25 Z " fill="#4543A4" transform="translate(64.5625,10.75)"/>
<path d="M0 0 C1.23556641 0.01740234 1.23556641 0.01740234 2.49609375 0.03515625 C3.32238281 0.04417969 4.14867188 0.05320312 5 0.0625 C5.63808594 0.07410156 6.27617188 0.08570313 6.93359375 0.09765625 C7.43764183 2.20085688 7.93669883 4.30525416 8.43359375 6.41015625 C8.71203125 7.58191406 8.99046875 8.75367188 9.27734375 9.9609375 C9.93359375 13.09765625 9.93359375 13.09765625 9.93359375 16.09765625 C5.3797476 16.46688702 5.3797476 16.46688702 3.12109375 14.59765625 C2.72921875 14.10265625 2.33734375 13.60765625 1.93359375 13.09765625 C0.94359375 14.58265625 0.94359375 14.58265625 -0.06640625 16.09765625 C-3.19140625 16.28515625 -3.19140625 16.28515625 -6.06640625 16.09765625 C-5.59186754 13.61751996 -5.1120164 11.13862369 -4.62890625 8.66015625 C-4.49419922 7.95310547 -4.35949219 7.24605469 -4.22070312 6.51757812 C-2.96966665 0.14034341 -2.96966665 0.14034341 0 0 Z M1.93359375 5.09765625 C1.60359375 6.41765625 1.27359375 7.73765625 0.93359375 9.09765625 C1.59359375 9.09765625 2.25359375 9.09765625 2.93359375 9.09765625 C2.60359375 7.77765625 2.27359375 6.45765625 1.93359375 5.09765625 Z " fill="#4443A4" transform="translate(108.06640625,10.90234375)"/>
<path d="M0 0 C1.97909398 -0.02686553 3.95828971 -0.04633375 5.9375 -0.0625 C7.03964844 -0.07410156 8.14179688 -0.08570312 9.27734375 -0.09765625 C12 0 12 0 13 1 C12.59932029 5.80815647 11.90728125 9.54708215 10 14 C8.02090602 14.02686553 6.04171029 14.04633375 4.0625 14.0625 C2.96035156 14.07410156 1.85820312 14.08570313 0.72265625 14.09765625 C-2 14 -2 14 -3 13 C-3.41199125 7.7471116 -2.65673037 4.53858105 0 0 Z M3 4 C3 4.33 3 4.66 3 5 C4.65 5 6.3 5 8 5 C8 4.67 8 4.34 8 4 C6.35 4 4.7 4 3 4 Z M2 6 C3 9 3 9 3 9 Z " fill="#AE0406" transform="translate(129,31)"/>
<path d="M0 0 C1.23556641 0.01740234 1.23556641 0.01740234 2.49609375 0.03515625 C3.32238281 0.04417969 4.14867187 0.05320312 5 0.0625 C5.63808594 0.07410156 6.27617187 0.08570313 6.93359375 0.09765625 C7.43764183 2.20085688 7.93669883 4.30525416 8.43359375 6.41015625 C8.71203125 7.58191406 8.99046875 8.75367188 9.27734375 9.9609375 C9.93359375 13.09765625 9.93359375 13.09765625 9.93359375 16.09765625 C6.78734382 16.35984374 5.31522358 16.34519992 2.62109375 14.59765625 C2.06421875 14.10265625 1.50734375 13.60765625 0.93359375 13.09765625 C0.60359375 14.08765625 0.27359375 15.07765625 -0.06640625 16.09765625 C-2.04640625 16.09765625 -4.02640625 16.09765625 -6.06640625 16.09765625 C-5.59186754 13.61751996 -5.1120164 11.13862369 -4.62890625 8.66015625 C-4.49419922 7.95310547 -4.35949219 7.24605469 -4.22070312 6.51757812 C-2.96966665 0.14034341 -2.96966665 0.14034341 0 0 Z M1.93359375 6.09765625 C1.60359375 7.08765625 1.27359375 8.07765625 0.93359375 9.09765625 C1.59359375 9.09765625 2.25359375 9.09765625 2.93359375 9.09765625 C2.60359375 8.10765625 2.27359375 7.11765625 1.93359375 6.09765625 Z " fill="#4240A2" transform="translate(140.06640625,10.90234375)"/>
<path d="M0 0 C7.60344828 0.60344828 7.60344828 0.60344828 10 3 C13.45828022 3.16669318 13.45828022 3.16669318 17 3 C18.66666667 3 20.33333333 3 22 3 C20.80100302 6.0831351 19.52299523 9.06279492 18 12 C17.01 11.67 16.02 11.34 15 11 C14.00123333 11 13.00251805 11.01756818 12.00390625 11.03515625 C11.19824219 11.04417969 10.39257812 11.05320312 9.5625 11.0625 C8.75941406 11.07410156 7.95632812 11.08570312 7.12890625 11.09765625 C5 11 5 11 3 10 C1.32345271 10.27942455 -0.34608154 10.60828247 -2 11 C-2.33 10.01 -2.66 9.02 -3 8 C-2.01 7.67 -1.02 7.34 0 7 C-0.66 6.67 -1.32 6.34 -2 6 C-1.125 1.125 -1.125 1.125 0 0 Z M1 3 C1.33 3.66 1.66 4.32 2 5 C2.66 5 3.32 5 4 5 C4 4.34 4 3.68 4 3 C3.01 3 2.02 3 1 3 Z M4 5 C5 7 5 7 5 7 Z M7 5 C7.33 5.99 7.66 6.98 8 8 C8.33 7.01 8.66 6.02 9 5 C8.34 5 7.68 5 7 5 Z " fill="#1D1E1F" transform="translate(67,53)"/>
<path d="M0 0 C2.97 0 5.94 0 9 0 C9.33 0.66 9.66 1.32 10 2 C12.64 2 15.28 2 18 2 C18.33 2.66 18.66 3.32 19 4 C20.32 3.34 21.64 2.68 23 2 C22.38479725 5.99881788 20.39731331 8.80358226 18 12 C17.34 12 16.68 12 16 12 C16 10.68 16 9.36 16 8 C15.67 8.66 15.34 9.32 15 10 C9.33333333 10 3.66666667 10 -2 10 C-2.33 9.01 -2.66 8.02 -3 7 C-0.525 7.495 -0.525 7.495 2 8 C2 7.34 2 6.68 2 6 C1.01 5.67 0.02 5.34 -1 5 C-0.67 3.35 -0.34 1.7 0 0 Z M3 3 C3.99 3.99 4.98 4.98 6 6 C5.67 5.01 5.34 4.02 5 3 C4.34 3 3.68 3 3 3 Z M8 4 C8.33 5.32 8.66 6.64 9 8 C9.66 7.01 10.32 6.02 11 5 C10.01 4.67 9.02 4.34 8 4 Z " fill="#1D1E1F" transform="translate(6,53)"/>
<path d="M0 0 C2.31243792 -0.02685412 4.6249627 -0.04632841 6.9375 -0.0625 C8.22527344 -0.07410156 9.51304688 -0.08570312 10.83984375 -0.09765625 C14 0 14 0 15 1 C14.93579251 2.62853535 14.7987936 4.25449212 14.625 5.875 C14.53476563 6.75929688 14.44453125 7.64359375 14.3515625 8.5546875 C14 11 14 11 13 14 C11.35 14 9.7 14 8 14 C8.66 10.7 9.32 7.4 10 4 C8.35 4.33 6.7 4.66 5 5 C4.01 7.97 3.02 10.94 2 14 C0.68 14 -0.64 14 -2 14 C-1.85704109 12.60386935 -1.71048442 11.20810692 -1.5625 9.8125 C-1.48128906 9.03519531 -1.40007812 8.25789063 -1.31640625 7.45703125 C-0.99227088 4.93998004 -0.52467495 2.4822857 0 0 Z " fill="#C52D31" transform="translate(111,31)"/>
<path d="M0 0 C4.62 0 9.24 0 14 0 C15.12758089 3.38274266 14.81750262 4.76778223 14.0625 8.1875 C13.86785156 9.08855469 13.67320313 9.98960938 13.47265625 10.91796875 C13.31667969 11.60503906 13.16070312 12.29210938 13 13 C11.35 13.33 9.7 13.66 8 14 C8.33 10.7 8.66 7.4 9 4 C7.35 4 5.7 4 4 4 C3.34 7.3 2.68 10.6 2 14 C0.35 14 -1.3 14 -3 14 C-2.69147815 12.041036 -2.3780582 10.08284287 -2.0625 8.125 C-1.88847656 7.03445312 -1.71445312 5.94390625 -1.53515625 4.8203125 C-1 2 -1 2 0 0 Z " fill="#C52A2E" transform="translate(58,31)"/>
<path d="M0 0 C2.97 0.99 5.94 1.98 9 3 C8.34 4.98 7.68 6.96 7 9 C9.35634505 8.57240071 11.70957721 8.13324692 14.0625 7.6875 C15.04766602 7.51057617 15.04766602 7.51057617 16.05273438 7.33007812 C20.7074553 6.4358214 24.69919063 4.99660461 29 3 C29 3.99 29 4.98 29 6 C27.75264433 6.6509259 26.50198168 7.29551669 25.25 7.9375 C24.55390625 8.29714844 23.8578125 8.65679687 23.140625 9.02734375 C19.60997317 10.63159978 16.45715579 11.12699912 12.59375 11.1328125 C11.35431641 11.13474609 11.35431641 11.13474609 10.08984375 11.13671875 C9.23519531 11.13285156 8.38054688 11.12898438 7.5 11.125 C6.64535156 11.12886719 5.79070313 11.13273437 4.91015625 11.13671875 C4.08386719 11.13542969 3.25757813 11.13414063 2.40625 11.1328125 C1.65666016 11.13168457 0.90707031 11.13055664 0.13476562 11.12939453 C-2.02346905 10.99857747 -3.92475391 10.59166841 -6 10 C-4.34832443 6.4213696 -2.21713508 3.25179812 0 0 Z " fill="#060578" transform="translate(18,29)"/>
<path d="M0 0 C1.65 0 3.3 0 5 0 C4.67 1.32 4.34 2.64 4 4 C4.99 4 5.98 4 7 4 C7 5.32 7 6.64 7 8 C5.68 8 4.36 8 3 8 C3 9.65 3 11.3 3 13 C3.66 13.33 4.32 13.66 5 14 C4.67 15.32 4.34 16.64 4 18 C2.00045254 18.04254356 -0.00041636 18.04080783 -2 18 C-2.33 17.67 -2.66 17.34 -3 17 C-2.86971703 11.11722295 -2.22280043 5.48290774 0 0 Z " fill="#AE0406" transform="translate(145,27)"/>
<path d="M0 0 C1.65 0 3.3 0 5 0 C4.67 1.32 4.34 2.64 4 4 C4.99 4 5.98 4 7 4 C7 5.32 7 6.64 7 8 C5.68 8 4.36 8 3 8 C3 9.65 3 11.3 3 13 C3.66 13.33 4.32 13.66 5 14 C5 15.32 5 16.64 5 18 C2.66705225 18.04241723 0.33297433 18.04092937 -2 18 C-2.33 17.67 -2.66 17.34 -3 17 C-2.85341378 11.11399958 -1.81951217 5.57983731 0 0 Z " fill="#C62C2F" transform="translate(75,27)"/>
<path d="M0 0 C2.64 0 5.28 0 8 0 C8 0.99 8 1.98 8 3 C8.33 2.34 8.66 1.68 9 1 C9.66 1 10.32 1 11 1 C10.67278832 4.05397571 9.96883223 5.03116777 7.75 7.25 C4.79010327 9.13357065 3.42491198 9.39141851 0 9 C-1.125 3.375 -1.125 3.375 0 0 Z " fill="#A60610" transform="translate(44,38)"/>
<path d="M0 0 C0.66 0 1.32 0 2 0 C2.50404808 2.10320063 3.00310508 4.20759791 3.5 6.3125 C3.7784375 7.48425781 4.056875 8.65601563 4.34375 9.86328125 C5 13 5 13 5 16 C2.15673536 16.23053497 0.53854651 16.35903101 -1.875 14.75 C-3 13 -3 13 -2.6875 10.8125 C-2.3471875 9.9153125 -2.3471875 9.9153125 -2 9 C-1.34 9 -0.68 9 0 9 C0 6.03 0 3.06 0 0 Z " fill="#070578" transform="translate(145,11)"/>
<path d="M0 0 C3.63 0 7.26 0 11 0 C11 1.32 11 2.64 11 4 C10.030625 4.12375 9.06125 4.2475 8.0625 4.375 C6.5465625 4.684375 6.5465625 4.684375 5 5 C4.67 5.66 4.34 6.32 4 7 C1.4375 7.625 1.4375 7.625 -1 8 C-0.67 5.36 -0.34 2.72 0 0 Z " fill="#C52C30" transform="translate(99,31)"/>
<path d="M0 0 C-0.14168137 1.43791516 -0.28851043 2.8753237 -0.4375 4.3125 C-0.51871094 5.11300781 -0.59992188 5.91351563 -0.68359375 6.73828125 C-1 9 -1 9 -2 12 C-3.65 12 -5.3 12 -7 12 C-6.67 8.37 -6.34 4.74 -6 1 C-3 0 -3 0 0 0 Z " fill="#AF0608" transform="translate(126,33)"/>
<path d="M0 0 C4.62 0 9.24 0 14 0 C14 1.32 14 2.64 14 4 C10.04 4 6.08 4 2 4 C1.34 2.68 0.68 1.36 0 0 Z " fill="#AF0305" transform="translate(81,41)"/>
<path d="M0 0 C-0.33 2.64 -0.66 5.28 -1 8 C-2.65 8.33 -4.3 8.66 -6 9 C-6.36521739 3.52173913 -6.36521739 3.52173913 -4.6875 1.125 C-3 0 -3 0 0 0 Z " fill="#B00609" transform="translate(115,36)"/>
<path d="M0 0 C1.32 0 2.64 0 4 0 C4.02689216 1.47906892 4.04634621 2.95827483 4.0625 4.4375 C4.07410156 5.26121094 4.08570313 6.08492187 4.09765625 6.93359375 C4 9 4 9 3 10 C1.33382885 10.04063832 -0.33388095 10.042721 -2 10 C-2.33 9.01 -2.66 8.02 -3 7 C-0.525 7.495 -0.525 7.495 2 8 C2 7.34 2 6.68 2 6 C1.01 5.67 0.02 5.34 -1 5 C-0.67 3.35 -0.34 1.7 0 0 Z " fill="#767777" transform="translate(6,53)"/>
<path d="M0 0 C2.475 0.99 2.475 0.99 5 2 C4.67 3.32 4.34 4.64 4 6 C2.35 6.33 0.7 6.66 -1 7 C-1.625 4.625 -1.625 4.625 -2 2 C-1.34 1.34 -0.68 0.68 0 0 Z " fill="#C33C43" transform="translate(52,20)"/>
<path d="M0 0 C2.64 0 5.28 0 8 0 C8 1.32 8 2.64 8 4 C5.69 4 3.38 4 1 4 C0.67 2.68 0.34 1.36 0 0 Z " fill="#AF0305" transform="translate(72,41)"/>
<path d="M0 0 C-0.66 1.65 -1.32 3.3 -2 5 C-3.32 5 -4.64 5 -6 5 C-6 3.35 -6 1.7 -6 0 C-2.25 -1.125 -2.25 -1.125 0 0 Z " fill="#B10608" transform="translate(103,40)"/>
<path d="M0 0 C1.65 0 3.3 0 5 0 C4.67 1.65 4.34 3.3 4 5 C2.35 5 0.7 5 -1 5 C-0.67 3.35 -0.34 1.7 0 0 Z " fill="#B0070A" transform="translate(56,40)"/>
<path d="M0 0 C1.65 0 3.3 0 5 0 C4.67 1.32 4.34 2.64 4 4 C2.68 4 1.36 4 0 4 C0 2.68 0 1.36 0 0 Z " fill="#B00305" transform="translate(66,41)"/>
<path d="M0 0 C1.32 0 2.64 0 4 0 C3.67 0.99 3.34 1.98 3 3 C2.34 2.67 1.68 2.34 1 2 C1.33 2.99 1.66 3.98 2 5 C1.01 5 0.02 5 -1 5 C-0.67 3.35 -0.34 1.7 0 0 Z " fill="#4D4D4E" transform="translate(6,53)"/>
<path d="M0 0 C0.33 0.99 0.66 1.98 1 3 C-2.22791555 5.1519437 -3.28400809 5.20086443 -7 5 C-5.49336217 1.98672434 -2.96833589 1.38943382 0 0 Z " fill="#2F2B9C" transform="translate(46,32)"/>
</svg>
